PathFileType	4	(X/Y/Z)	/Users/niels/Desktop/University/Third Semester/Perception and Action/Exam/Gymnastics Motion Tracking/Code for Gym Tracking/Analyzed Data/Webcam_Backflip/id1_1_trajectory_Sports2D/id1_1_trajectory_Sports2D_px_person00.trc
DataRate	CameraRate	NumFrames	NumMarkers	Units	OrigDataRate	OrigDataStartFrame	OrigNumFrames
29.874476987447697	29.874476987447697	7	22	m	29.874476987447697	149	239
Frame#	Time	Hip			RHip			RKnee			RAnkle			RBigToe			RSmallToe			RHeel			LHip			LKnee			LAnkle			LBigToe			LSmallToe			LHeel			Neck			Head			Nose			RShoulder			RElbow			RWrist			LShoulder			LElbow			LWrist		
		X1	Y1	Z1	X2	Y2	Z2	X3	Y3	Z3	X4	Y4	Z4	X5	Y5	Z5	X6	Y6	Z6	X7	Y7	Z7	X8	Y8	Z8	X9	Y9	Z9	X10	Y10	Z10	X11	Y11	Z11	X12	Y12	Z12	X13	Y13	Z13	X14	Y14	Z14	X15	Y15	Z15	X16	Y16	Z16	X17	Y17	Z17	X18	Y18	Z18	X19	Y19	Z19	X20	Y20	Z20	X21	Y21	Z21	X22	Y22	Z22
149	4.987535014005602	0.8393456950240354	-0.6075183404322477	0.0	0.8428880677535115	-0.6092220109089724	0.0	0.8557967146732622	-0.7135067377215479	0.0	0.8508322966595214	-0.8314655246656101	0.0	0.8994658756886712	-0.8425433843753181	0.0	0.8909419747651925	-0.8476906550424353	0.0	0.8406505100302679	-0.8470551682327877	0.0	0.8420594035461604	-0.6099523397327203	0.0	0.8388797911543765	-0.7137181727459992	0.0	0.8275081269780465	-0.8302852241156566	0.0	0.8822086131700411	-0.8413832895063867	0.0	0.8783921456592655	-0.8373604221648528	0.0	0.8199158056670204	-0.8453841193795596	0.0	0.8489998930894331	-0.44361104805114254	0.0	0.8662376125798743	-0.3749710398531208	0.0	0.8721925336038941	-0.41702597776176115	0.0	0.8271281441886285	-0.46439002414647024	0.0	0.8108726183554089	-0.540331025460291	0.0	0.8414669718906924	-0.6093264752543244	0.0	0.8548310624395643	-0.467055589000402	0.0	0.8601422217808895	-0.5435413252178237	0.0	0.9016396429532552	-0.596111613088473	0.0
150	5.0210084033613445	0.8393221763826113	-0.60581170101468	0.0	0.8430863261376615	-0.6078032116803219	0.0	0.8558715585782231	-0.7115240208643179	0.0	0.8509075274099275	-0.8296287621940633	0.0	0.899606593071711	-0.8413165273802928	0.0	0.8913698231751119	-0.846523111934469	0.0	0.8405547975337002	-0.845345969161894	0.0	0.842641080146939	-0.6083235452932642	0.0	0.8396587523072478	-0.7114199919018968	0.0	0.8277516567909949	-0.8278214199413578	0.0	0.8830330611499555	-0.8391429054406201	0.0	0.878046623843342	-0.8351540138137309	0.0	0.8205576574796397	-0.8433976843545038	0.0	0.8494103788367054	-0.44184548075147856	0.0	0.8667446465135469	-0.37308189727303487	0.0	0.8722287326715072	-0.415330428976494	0.0	0.8273395487820198	-0.4625747579644159	0.0	0.8122773275813239	-0.5388066184151181	0.0	0.844891426731139	-0.6061815403297309	0.0	0.8553741195990388	-0.46511043720324363	0.0	0.8617397327767468	-0.5410987737792872	0.0	0.907132472071149	-0.5914059498110326	0.0
151	5.054481792717087	0.8397264526692678	-0.6029842440973306	0.0	0.8435021623015726	-0.6050720640125722	0.0	0.8560248114305348	-0.7085457863966339	0.0	0.8509972498633515	-0.8267547001221032	0.0	0.8998380684106115	-0.8392675918751363	0.0	0.8917412716759484	-0.8444899224372169	0.0	0.840432846462465	-0.8428127962402627	0.0	0.8434165207713917	-0.6054669867108367	0.0	0.8405553038106581	-0.7081728206062402	0.0	0.8280597398897791	-0.8241827951824297	0.0	0.8835902711369531	-0.8358886014051281	0.0	0.8774416995416605	-0.8319418047698274	0.0	0.8210642043006181	-0.8403801943934227	0.0	0.8500075931232	-0.4388850166596472	0.0	0.8673780421519026	-0.3700967142694059	0.0	0.8727020523237949	-0.4126121016572152	0.0	0.8276627441731312	-0.4596849750384892	0.0	0.8133228074523525	-0.5359689375403235	0.0	0.8474075509852962	-0.6019644181699662	0.0	0.8559765030424942	-0.4618938619390717	0.0	0.8625892705744894	-0.5375397957822992	0.0	0.9102312681950976	-0.5864819689133873	0.0
152	5.087955182072829	0.8404574053974534	-0.5992460975908315	0.0	0.8441423648013894	-0.6012917387172868	0.0	0.856280227326116	-0.7048423566262357	0.0	0.8510957818116424	-0.8231176085027813	0.0	0.9001186137078436	-0.8365928016947332	0.0	0.8920839638670867	-0.8417787689004617	0.0	0.840347502397206	-0.8396493343869443	0.0	0.8441958628000528	-0.601673111608603	0.0	0.8415307243652611	-0.7042936740494521	0.0	0.8284146885998882	-0.8198493515650392	0.0	0.8838295818091337	-0.8320676300343716	0.0	0.8767882855158668	-0.8281309954804836	0.0	0.8213679332166073	-0.8366943745620612	0.0	0.8507650531478258	-0.43507291405231213	0.0	0.8681035346080175	-0.3663164603745512	0.0	0.8735934052034036	-0.4091000076330695	0.0	0.828234925386036	-0.4560011974122043	0.0	0.8140797723368822	-0.5321050147954318	0.0	0.8489688957948249	-0.5971393973738671	0.0	0.8566340082470956	-0.4578234356582219	0.0	0.8629668892903848	-0.5334535033286834	0.0	0.9111927105130598	-0.5819214938899282	0.0
153	5.121428571428571	0.841384182513091	-0.5948912497413917	0.0	0.8449609866583152	-0.5968495207733507	0.0	0.8565906464826368	-0.7007354136971823	0.0	0.8512152199967479	-0.819045439332437	0.0	0.9004339375475747	-0.833635478053261	0.0	0.8924608097459494	-0.8387196324484479	0.0	0.8403508248006338	-0.8361395682328269	0.0	0.8449031931794716	-0.5973034680518013	0.0	0.8425110304034309	-0.7000762842423066	0.0	0.8287899674191422	-0.8153126226251685	0.0	0.8838380246509536	-0.8281505668837752	0.0	0.8763848716408046	-0.8242037412196109	0.0	0.8214591853275647	-0.8327492824329106	0.0	0.8516378284419736	-0.4308397818601023	0.0	0.8690205821145852	-0.362076014692121	0.0	0.8747505445850241	-0.40512880328187206	0.0	0.8291044315743081	-0.45186429942930967	0.0	0.8146232599963114	-0.5276173603861853	0.0	0.849685112356717	-0.592208376101852	0.0	0.8573374485594276	-0.4534149664833467	0.0	0.8630935949129502	-0.5293419835512421	0.0	0.910378832025278	-0.5781882150202128	0.0
154	5.154901960784313	0.8424086301053045	-0.5903285944146746	0.0	0.8458800285917331	-0.5922486575537391	0.0	0.8568706293055671	-0.696641753156385	0.0	0.8513434864007267	-0.8149434459823375	0.0	0.9007524733982814	-0.8308288074283157	0.0	0.8928610434613427	-0.8357525282202976	0.0	0.8404489276726533	-0.8326814814034882	0.0	0.8455493085542545	-0.5928142374236519	0.0	0.8433885319028812	-0.6958682075179647	0.0	0.8291535948334557	-0.8110063817871208	0.0	0.8837412205133409	-0.8245367291800123	0.0	0.8764264234792776	-0.8206164978868512	0.0	0.8213647085203973	-0.8289439500136241	0.0	0.8525945862183403	-0.4266392555863202	0.0	0.8702293422685361	-0.357758273070704	0.0	0.8759652475786182	-0.40111430135388293	0.0	0.8302025137946968	-0.44765333109824945	0.0	0.8150099333649348	-0.5229981297435019	0.0	0.8498154405442737	-0.587648678366817	0.0	0.8581107908782715	-0.44916904854207274	0.0	0.863101112993442	-0.5255864435041184	0.0	0.9081593070844277	-0.5755894187413839	0.0
155	5.188375350140056	0.8434940644600188	-0.5860374018653433	0.0	0.8468118940721573	-0.587992697956165	0.0	0.857039553895428	-0.6930097875006198	0.0	0.8514303634917713	-0.8112622144593961	0.0	0.9009948539044967	-0.8285704300742956	0.0	0.8931499085574243	-0.8332971453271174	0.0	0.8405974434775104	-0.8296978158928539	0.0	0.846199817237959	-0.5886720992308132	0.0	0.8440558908662861	-0.6920856010684612	0.0	0.8294709486517544	-0.8072847406248492	0.0	0.8836191119826569	-0.8215303227452875	0.0	0.8768874053683168	-0.817716222742882	0.0	0.821136067494098	-0.8256122398666734	0.0	0.8536187209917501	-0.4228951919859312	0.0	0.8717082023324416	-0.35380872411161707	0.0	0.8771062523393589	-0.39748853529168787	0.0	0.8313952869278721	-0.44376721531584246	0.0	0.8152573900274126	-0.5187558271857639	0.0	0.8496900035551289	-0.5838695885496656	0.0	0.8589889647786347	-0.44548490281698694	0.0	0.8630137400749837	-0.5224113341585889	0.0	0.9048391881221407	-0.574236344325986	0.0
